<?xml version="1.0" standalone="no"?>
<!DOCTYPE svg PUBLIC "-//W3C//DTD SVG 20010904//EN"
 "http://www.w3.org/TR/2001/REC-SVG-20010904/DTD/svg10.dtd">
<svg version="1.0" xmlns="http://www.w3.org/2000/svg"
 width="1080.000000pt" height="1080.000000pt" viewBox="0 0 1080.000000 1080.000000"
 preserveAspectRatio="xMidYMid meet">

<g transform="translate(0.000000,1080.000000) scale(0.100000,-0.100000)"
fill="#000000" stroke="none">
<path d="M6260 10793 c-180 -8 -549 -60 -740 -104 -775 -182 -1486 -576 -2051
-1139 -495 -493 -831 -1031 -1049 -1679 -325 -965 -299 -2000 72 -2949 272
-695 735 -1319 1333 -1798 800 -639 1836 -973 2862 -924 661 32 1251 192 1823
495 385 204 704 440 1025 760 295 294 519 589 722 951 576 1032 698 2272 336
3409 -172 542 -479 1082 -860 1515 -378 429 -813 765 -1320 1019 -659 330
-1375 478 -2153 444z m1783 -2212 c91 -32 182 -95 237 -163 25 -31 144 -238
264 -459 121 -222 235 -429 253 -460 44 -77 96 -126 173 -163 l65 -31 222 -5
c291 -7 267 16 271 -248 4 -234 8 -224 -121 -297 -100 -58 -141 -95 -175 -160
l-27 -50 -5 -880 -5 -880 -23 -56 c-32 -80 -91 -168 -141 -211 -207 -177 -511
-167 -701 24 -102 104 -150 225 -150 386 l0 82 -1685 0 -1685 0 0 -92 c0 -51
-6 -116 -14 -145 -48 -181 -196 -325 -377 -368 -259 -61 -509 79 -606 340 -17
47 -18 106 -23 930 l-5 880 -22 42 c-33 60 -80 102 -178 157 -124 70 -125 72
-125 282 0 96 5 184 11 202 20 57 38 62 247 62 211 0 276 11 354 61 26 17 60
45 75 63 16 17 143 243 283 501 226 415 262 475 313 527 73 72 193 134 287
147 36 5 700 8 1505 7 l1440 -1 68 -24z"/>
<path d="M4895 7663 c-121 -223 -221 -409 -223 -414 -2 -5 762 -9 1826 -9
l1830 0 -226 415 -227 415 -1380 0 -1380 -1 -220 -406z"/>
<path d="M4230 6065 l0 -295 476 0 476 0 -4 133 c-3 152 -20 199 -93 272 -75
75 -105 84 -475 137 -184 26 -345 48 -357 48 l-23 0 0 -295z"/>
<path d="M8370 6311 c-364 -53 -388 -60 -466 -143 -73 -78 -88 -122 -92 -270
l-4 -128 476 0 476 0 0 295 0 295 -32 -1 c-18 -1 -179 -22 -358 -48z"/>
<path d="M5747 6173 c-4 -3 -7 -96 -7 -205 l0 -198 755 0 755 0 0 205 0 205
-748 0 c-412 0 -752 -3 -755 -7z"/>
<path d="M1230 6288 c0 -205 31 -528 75 -784 141 -816 487 -1607 989 -2254
l66 -85 -1099 -1100 c-1184 -1185 -1144 -1142 -1187 -1290 -22 -79 -22 -221 1
-300 56 -197 211 -350 401 -400 76 -20 220 -19 298 1 145 37 93 -11 1286 1180
l1105 1103 120 -91 c806 -607 1755 -960 2763 -1028 85 -5 194 -10 243 -10 l89
0 0 223 0 224 -222 11 c-426 23 -766 82 -1156 202 -1108 340 -2067 1095 -2663
2097 -401 674 -618 1417 -655 2241 l-7 152 -223 0 -224 0 0 -92z"/>
</g>
</svg>
